<?xml version="1.0" encoding="UTF-8" standalone="no"?>
<!-- Created with Inkscape (http://www.inkscape.org/) -->

<svg
   xmlns:dc="http://purl.org/dc/elements/1.1/"
   xmlns:cc="http://creativecommons.org/ns#"
   xmlns:rdf="http://www.w3.org/1999/02/22-rdf-syntax-ns#"
   xmlns:svg="http://www.w3.org/2000/svg"
   xmlns="http://www.w3.org/2000/svg"
   xmlns:sodipodi="http://sodipodi.sourceforge.net/DTD/sodipodi-0.dtd"
   xmlns:inkscape="http://www.inkscape.org/namespaces/inkscape"
   width="136.10637"
   height="41.262691"
   viewBox="0 0 36.011477 10.917421"
   version="1.1"
   id="svg919"
   inkscape:version="0.92.3 (2405546, 2018-03-11)"
   sodipodi:docname="auria-clinical-informatics-flat.svg"
   inkscape:export-filename="/home/arho/vsshp/pinta/KTP/Hallinto/logo/auria-clinical-informatics-flat.png"
   inkscape:export-xdpi="299"
   inkscape:export-ydpi="299">
  <defs
     id="defs913">
    <marker
       inkscape:stockid="DotL"
       orient="auto"
       refY="0"
       refX="0"
       id="marker5203"
       style="overflow:visible"
       inkscape:isstock="true">
      <path
         id="path5201"
         d="m -2.5,-1 c 0,2.76 -2.24,5 -5,5 -2.76,0 -5,-2.24 -5,-5 0,-2.76 2.24,-5 5,-5 2.76,0 5,2.24 5,5 z"
         style="fill:#ffffff;fill-opacity:1;fill-rule:evenodd;stroke:#1d63b5;stroke-width:1.00000003pt;stroke-opacity:1"
         transform="matrix(0.8,0,0,0.8,5.92,0.8)"
         inkscape:connector-curvature="0" />
    </marker>
    <marker
       inkscape:stockid="DotL"
       orient="auto"
       refY="0"
       refX="0"
       id="DotL"
       style="overflow:visible"
       inkscape:isstock="true">
      <path
         id="path4826"
         d="m -2.5,-1 c 0,2.76 -2.24,5 -5,5 -2.76,0 -5,-2.24 -5,-5 0,-2.76 2.24,-5 5,-5 2.76,0 5,2.24 5,5 z"
         style="fill:#ffffff;fill-opacity:1;fill-rule:evenodd;stroke:#1d63b5;stroke-width:1.00000003pt;stroke-opacity:1"
         transform="matrix(0.8,0,0,0.8,5.92,0.8)"
         inkscape:connector-curvature="0" />
    </marker>
    <marker
       inkscape:stockid="SquareM"
       orient="auto"
       refY="0"
       refX="0"
       id="SquareM"
       style="overflow:visible"
       inkscape:isstock="true">
      <path
         id="path4838"
         d="M -5,-5 V 5 H 5 V -5 Z"
         style="fill:#ffffff;fill-opacity:1;fill-rule:evenodd;stroke:#1d63b5;stroke-width:1.00000003pt;stroke-opacity:1"
         transform="scale(0.4)"
         inkscape:connector-curvature="0" />
    </marker>
  </defs>
  <sodipodi:namedview
     id="base"
     pagecolor="#ffffff"
     bordercolor="#666666"
     borderopacity="1.0"
     inkscape:pageopacity="0.0"
     inkscape:pageshadow="2"
     inkscape:zoom="11.2"
     inkscape:cx="34.197263"
     inkscape:cy="29.706714"
     inkscape:document-units="mm"
     inkscape:current-layer="layer1"
     showgrid="false"
     fit-margin-top="1"
     fit-margin-left="1"
     fit-margin-right="1"
     fit-margin-bottom="1"
     units="px"
     inkscape:window-width="3840"
     inkscape:window-height="2047"
     inkscape:window-x="0"
     inkscape:window-y="55"
     inkscape:window-maximized="0"
     showguides="true"
     inkscape:guide-bbox="true"
     inkscape:snap-global="false" />
  <metadata
     id="metadata916">
    <rdf:RDF>
      <cc:Work
         rdf:about="">
        <dc:format>image/svg+xml</dc:format>
        <dc:type
           rdf:resource="http://purl.org/dc/dcmitype/StillImage" />
        <dc:title></dc:title>
      </cc:Work>
    </rdf:RDF>
  </metadata>
  <g
     inkscape:label="Layer 1"
     inkscape:groupmode="layer"
     id="layer1"
     transform="translate(-28.772736,-87.052259)">
    <g
       style="stroke-width:0.75;stroke-miterlimit:4;stroke-dasharray:none;fill:none"
       id="g14"
       transform="matrix(0.24437023,0,0,0.24437023,29.065985,87.345323)">
      <path
         inkscape:connector-curvature="0"
         id="path16"
         style="fill:none;fill-opacity:1;fill-rule:nonzero;stroke:#1d63b5;stroke-width:0.75;stroke-linecap:butt;stroke-linejoin:miter;stroke-miterlimit:4;stroke-dasharray:none;stroke-opacity:1"
         d="M 22.785,30.547 34.996,35.727 14.008,26.93 15.629,40.094 12.754,17.523 2.16,25.508 20.273,11.73 8.063,6.547 29.047,15.344 27.43,2.18 30.305,24.754 40.898,16.77 Z" />
    </g>
    <g
       style="stroke-width:0.69043446;stroke-miterlimit:4;stroke-dasharray:none"
       transform="matrix(0.24437023,0.10367407,-0.10367407,0.24437023,29.065985,87.345323)"
       id="g18">
      <path
         inkscape:connector-curvature="0"
         id="path20"
         style="fill:#ffffff;fill-opacity:1;fill-rule:evenodd;stroke:#1d63b5;stroke-width:0.69043446;stroke-linecap:butt;stroke-linejoin:miter;stroke-miterlimit:4;stroke-dasharray:none;stroke-opacity:1"
         d="m 32.031,17.696 c 0,0.976 -0.794,1.774 -1.775,1.773 -0.977,0 -1.775,-0.794 -1.773,-1.776 -0.002,-0.979 0.794,-1.774 1.775,-1.772 0.98,-0.002 1.775,0.794 1.773,1.775 z" />
    </g>
    <g
       style="stroke-width:0.69107211;stroke-miterlimit:4;stroke-dasharray:none"
       transform="matrix(-0.10304531,0.24437023,-0.24437023,-0.10304531,29.065985,87.345323)"
       id="g22">
      <path
         inkscape:connector-curvature="0"
         id="path24"
         style="fill:#ffffff;fill-opacity:1;fill-rule:evenodd;stroke:#1d63b5;stroke-width:0.69107211;stroke-linecap:butt;stroke-linejoin:miter;stroke-miterlimit:4;stroke-dasharray:none;stroke-opacity:1"
         d="m 19.546,-42.504 c -10e-4,0.981 -0.799,1.775 -1.778,1.777 -0.981,0 -1.778,-0.797 -1.777,-1.778 0,-0.98 0.797,-1.777 1.778,-1.777 0.98,10e-4 1.774,0.799 1.777,1.778 z" />
    </g>
    <g
       style="stroke-width:0.59790653;stroke-miterlimit:4;stroke-dasharray:none"
       transform="matrix(-0.24437023,0.18505473,-0.18505473,-0.24437023,29.065985,87.345323)"
       id="g26">
      <path
         inkscape:connector-curvature="0"
         id="path28"
         style="fill:#ffffff;fill-opacity:1;fill-rule:evenodd;stroke:#1d63b5;stroke-width:0.59790653;stroke-linecap:butt;stroke-linejoin:miter;stroke-miterlimit:4;stroke-dasharray:none;stroke-opacity:1"
         d="m 5.563,-23.858 c 0.002,0.849 -0.688,1.538 -1.535,1.537 -0.849,0.002 -1.538,-0.688 -1.539,-1.537 0,-0.847 0.69,-1.535 1.539,-1.537 0.847,0.001 1.536,0.69 1.535,1.537 z" />
    </g>
    <g
       style="stroke-width:0.74419165;stroke-miterlimit:4;stroke-dasharray:none"
       transform="matrix(-0.24437023,0.030591,-0.030591,-0.24437023,29.065985,87.345323)"
       id="g30">
      <path
         inkscape:connector-curvature="0"
         id="path32"
         style="fill:#ffffff;fill-opacity:1;fill-rule:evenodd;stroke:#1d63b5;stroke-width:0.74419165;stroke-linecap:butt;stroke-linejoin:miter;stroke-miterlimit:4;stroke-dasharray:none;stroke-opacity:1"
         d="m -8.571,-41.405 c 10e-4,1.059 -0.857,1.916 -1.911,1.913 -1.059,0 -1.912,-0.856 -1.913,-1.911 -0.001,-1.055 0.856,-1.913 1.911,-1.913 1.055,-10e-4 1.913,0.856 1.913,1.911 z" />
    </g>
    <g
       style="stroke-width:0.69106472;stroke-miterlimit:4;stroke-dasharray:none"
       transform="matrix(-0.24437023,-0.10305264,0.10305264,-0.24437023,29.065985,87.345323)"
       id="g34">
      <path
         inkscape:connector-curvature="0"
         id="path36"
         style="fill:#ffffff;fill-opacity:1;fill-rule:evenodd;stroke:#1d63b5;stroke-width:0.69106472;stroke-linecap:butt;stroke-linejoin:miter;stroke-miterlimit:4;stroke-dasharray:none;stroke-opacity:1"
         d="m -15.36,-10.312 c -0.001,0.981 -0.794,1.777 -1.775,1.776 -0.98,0 -1.776,-0.794 -1.775,-1.774 0,-0.981 0.793,-1.777 1.774,-1.776 0.981,0 1.776,0.794 1.776,1.774 z" />
    </g>
    <g
       style="stroke-width:0.59792149;stroke-miterlimit:4;stroke-dasharray:none"
       transform="matrix(-0.18504203,-0.24437023,0.24437023,-0.18504203,29.065985,87.345323)"
       id="g38">
      <path
         inkscape:connector-curvature="0"
         id="path40"
         style="fill:#ffffff;fill-opacity:1;fill-rule:evenodd;stroke:#1d63b5;stroke-width:0.59792149;stroke-linecap:butt;stroke-linejoin:miter;stroke-miterlimit:4;stroke-dasharray:none;stroke-opacity:1"
         d="m -15.744,-10.902 c -10e-4,0.847 -0.688,1.537 -1.538,1.535 -0.849,0.001 -1.535,-0.686 -1.537,-1.535 10e-4,-0.847 0.688,-1.538 1.539,-1.538 0.848,10e-4 1.534,0.689 1.536,1.538 z" />
    </g>
    <g
       style="stroke-width:0.74419248;stroke-miterlimit:4;stroke-dasharray:none"
       transform="matrix(-0.0305888,-0.24437023,0.24437023,-0.0305888,29.065985,87.345323)"
       id="g42">
      <path
         inkscape:connector-curvature="0"
         id="path44"
         style="fill:#ffffff;fill-opacity:1;fill-rule:evenodd;stroke:#1d63b5;stroke-width:0.74419248;stroke-linecap:butt;stroke-linejoin:miter;stroke-miterlimit:4;stroke-dasharray:none;stroke-opacity:1"
         d="m -12.173,18.515 c 10e-4,1.055 -0.857,1.913 -1.911,1.91 -1.055,0 -1.912,-0.857 -1.913,-1.912 -10e-4,-1.055 0.856,-1.912 1.911,-1.913 1.059,0 1.913,0.857 1.913,1.915 z" />
    </g>
    <g
       style="stroke-width:0.69107211;stroke-miterlimit:4;stroke-dasharray:none"
       transform="matrix(0.10304531,-0.24437023,0.24437023,0.10304531,29.065985,87.345323)"
       id="g46">
      <path
         inkscape:connector-curvature="0"
         id="path48"
         style="fill:#ffffff;fill-opacity:1;fill-rule:evenodd;stroke:#1d63b5;stroke-width:0.69107211;stroke-linecap:butt;stroke-linejoin:miter;stroke-miterlimit:4;stroke-dasharray:none;stroke-opacity:1"
         d="m -0.935,9.187 c 0,0.981 -0.794,1.776 -1.774,1.776 -0.98,0.003 -1.776,-0.794 -1.776,-1.775 0.001,-0.981 0.794,-1.776 1.775,-1.776 0.98,0.001 1.776,0.794 1.775,1.775 z" />
    </g>
    <g
       style="stroke-width:0.59790653;stroke-miterlimit:4;stroke-dasharray:none"
       transform="matrix(0.24437023,-0.18505473,0.18505473,0.24437023,29.065985,87.345323)"
       id="g50">
      <path
         inkscape:connector-curvature="0"
         id="path52"
         style="fill:#ffffff;fill-opacity:1;fill-rule:evenodd;stroke:#1d63b5;stroke-width:0.59790653;stroke-linecap:butt;stroke-linejoin:miter;stroke-miterlimit:4;stroke-dasharray:none;stroke-opacity:1"
         d="m 12.583,23.732 c -0.003,0.849 -0.688,1.538 -1.537,1.539 -0.849,-0.002 -1.535,-0.69 -1.537,-1.539 10e-4,-0.847 0.69,-1.536 1.537,-1.535 0.849,-0.002 1.538,0.688 1.537,1.535 z" />
    </g>
    <g
       style="stroke-width:0.74419165;stroke-miterlimit:4;stroke-dasharray:none"
       transform="matrix(0.24437023,-0.030591,0.030591,0.24437023,29.065985,87.345323)"
       id="g54">
      <path
         inkscape:connector-curvature="0"
         id="path56"
         style="fill:#ffffff;fill-opacity:1;fill-rule:evenodd;stroke:#1d63b5;stroke-width:0.74419165;stroke-linecap:butt;stroke-linejoin:miter;stroke-miterlimit:4;stroke-dasharray:none;stroke-opacity:1"
         d="m 28.613,5.527 c 0.001,1.055 -0.857,1.912 -1.912,1.913 -1.058,10e-4 -1.916,-0.857 -1.913,-1.911 0,-1.059 0.857,-1.916 1.912,-1.913 1.054,-10e-4 1.912,0.856 1.913,1.911 z" />
    </g>
    <g
       style="stroke-width:0.69106472;stroke-miterlimit:4;stroke-dasharray:none"
       transform="matrix(0.24437023,0.10305264,-0.10305264,0.24437023,29.065985,87.345323)"
       id="g58">
      <path
         inkscape:connector-curvature="0"
         id="path60"
         style="fill:#ffffff;fill-opacity:1;fill-rule:evenodd;stroke:#1d63b5;stroke-width:0.69106472;stroke-linecap:butt;stroke-linejoin:miter;stroke-miterlimit:4;stroke-dasharray:none;stroke-opacity:1"
         d="m 36.334,10.166 c -0.001,0.981 -0.797,1.778 -1.778,1.777 -0.981,0 -1.774,-0.799 -1.777,-1.778 0,-0.98 0.799,-1.774 1.778,-1.777 0.981,10e-4 1.777,0.797 1.777,1.778 z" />
    </g>
    <g
       style="stroke-width:0.59792149;stroke-miterlimit:4;stroke-dasharray:none"
       transform="matrix(0.18504203,0.24437023,-0.24437023,0.18504203,29.065985,87.345323)"
       id="g62">
      <path
         inkscape:connector-curvature="0"
         id="path64"
         style="fill:#ffffff;fill-opacity:1;fill-rule:evenodd;stroke:#1d63b5;stroke-width:0.59792149;stroke-linecap:butt;stroke-linejoin:miter;stroke-miterlimit:4;stroke-dasharray:none;stroke-opacity:1"
         d="m 31.846,-17.924 c 0.002,0.848 -0.688,1.537 -1.535,1.536 -0.849,0.002 -1.537,-0.687 -1.537,-1.534 -0.001,-0.849 0.688,-1.538 1.535,-1.537 0.849,-0.002 1.538,0.687 1.537,1.535 z" />
    </g>
    <g
       transform="translate(-4.9267955,-0.00100713)"
       id="g4590">
      <text
         id="text3338-9-7-2-2"
         y="91.779343"
         x="58.035072"
         style="font-style:normal;font-variant:normal;font-weight:normal;font-stretch:normal;font-size:0.45174816px;line-height:0%;font-family:'URW Gothic L';-inkscape-font-specification:'URW Gothic L, Normal';text-align:center;letter-spacing:0px;word-spacing:0px;writing-mode:lr-tb;text-anchor:middle;fill:#000000;fill-opacity:1;stroke:none;stroke-width:0.26458332px;stroke-linecap:butt;stroke-linejoin:miter;stroke-opacity:1"
         xml:space="preserve"><tspan
           style="font-style:normal;font-variant:normal;font-weight:normal;font-stretch:normal;font-size:2.86841273px;line-height:125%;font-family:'URW Gothic L';-inkscape-font-specification:'URW Gothic L, Normal';text-align:center;writing-mode:lr-tb;text-anchor:middle;stroke-width:0.26458332px"
           y="91.779343"
           x="58.035072"
           id="tspan3340-7-9-2-7"
           sodipodi:role="line">AURIA CLINICAL</tspan><tspan
           id="tspan1045-8-0"
           style="font-style:normal;font-variant:normal;font-weight:normal;font-stretch:normal;font-size:2.86841273px;line-height:125%;font-family:'URW Gothic L';-inkscape-font-specification:'URW Gothic L, Normal';text-align:center;writing-mode:lr-tb;text-anchor:middle;stroke-width:0.26458332px"
           y="95.364861"
           x="58.035072"
           sodipodi:role="line">INFORMATICS</tspan><tspan
           style="font-style:normal;font-variant:normal;font-weight:normal;font-stretch:normal;font-size:2.86841273px;line-height:125%;font-family:'URW Gothic L';-inkscape-font-specification:'URW Gothic L, Normal';text-align:center;writing-mode:lr-tb;text-anchor:middle;stroke-width:0.26458332px"
           id="tspan3342-9-2-9-9"
           y="96.580032"
           x="58.035072"
           sodipodi:role="line" /></text>
      <rect
         rx="0"
         ry="0"
         y="92.527382"
         x="46.675102"
         height="0.27394155"
         width="22.771322"
         id="rect4159-4-0-7-3"
         style="opacity:1;fill:#1d63b5;fill-opacity:1;stroke-width:0.26458332" />
    </g>
  </g>
</svg>
